<?xml version="1.0" encoding="UTF-8"?>
<svg id="Layer_1" data-name="Layer 1" xmlns="http://www.w3.org/2000/svg" viewBox="0 0 821.38 595.28">
  <defs>
    <style>
      .cls-1 {
        fill: none;
      }

      .cls-2 {
        fill: #fff;
        opacity: .06;
      }

      .cls-3 {
        fill: #2a172a;
      }
    </style>
  </defs>
  <polygon class="cls-2" points="819.62 596.28 410.35 302.92 1.08 596.28 -.35 594.27 410.35 299.89 411.07 300.4 821.05 594.27 819.62 596.28"/>
  <g>
    <polygon class="cls-1" points="816.58 7.54 407.32 300.89 .5 9.31 .5 7.54 816.58 7.54"/>
    <polygon class="cls-3" points="820.48 7.54 820.48 595.26 .5 595.26 .5 9.31 407.32 300.89 816.58 7.54 820.48 7.54"/>
  </g>
  <polygon class="cls-2" points="821.61 596.28 412.35 302.92 3.08 596.28 1.65 594.27 412.35 299.89 413.06 300.4 823.05 594.27 821.61 596.28"/>
  <polygon class="cls-2" points="818.01 9.55 407.32 303.92 406.59 303.42 .5 12.34 -3.39 9.55 -1.97 7.54 .5 9.31 407.32 300.89 816.58 7.54 818.01 9.55"/>
</svg>